<svg viewBox="0 0 427 78" xmlns="http://www.w3.org/2000/svg" xmlns:xlink="http://www.w3.org/1999/xlink"><defs><filter x="-4.6%" y="-42.9%" width="109.2%" height="185.7%" filterUnits="objectBoundingBox" id="a"><feGaussianBlur stdDeviation="6" in="SourceGraphic"/></filter><radialGradient cx="50.689%" fx="50.689%" fy="50%" r="501.42%" gradientTransform="matrix(.10801 0 0 1 .452 0)" id="b"><stop stop-color="#683DE7" offset="0%"/><stop stop-color="#4A03D0" offset="100%"/></radialGradient><radialGradient cy="50.312%" fx="50%" fy="50.312%" r="84.888%" gradientTransform="matrix(0 1 -.33774 0 .67 .003)" id="d"><stop stop-color="#FFF" stop-opacity=".8" offset="0%"/><stop stop-color="#FFFEFF" stop-opacity=".797" offset=".6%"/><stop stop-color="#F50CBE" stop-opacity=".4" offset="99.662%"/><stop stop-color="#F50BBE" stop-opacity=".3" offset="100%"/></radialGradient><path d="M6 41l10-2.5v-25h22.5l5-10H11l-5 5V41zm35-15V16H18.5v10H41zm16.438 12.5V26h2.175l12.5 12.5h14.15L73.763 26h3.675l5-5V8.5l-5-5h-32.5l5 10h22.5V16h-25v22.5h10zm66.439 2.5V8.5l-5-5h-25l-5 5v30h10v-25h15V16h-12.5v10h12.5v10l10 5zm41.438 0V8.5l-5-5h-25l-5 5v30h10v-25h2.5v25h10v-25h2.5V36l10 5zm41.439-2.5v-10h-25v-15h22.5l5-10h-32.5l-5 5v25l5 5h30zm0-12.5V16h-22.5v10h22.5zm36.438 12.5l5-5v-30h-10v25h-2.5v-25h-10v25h-2.5V6l-10-5v32.5l5 5h25zm41.439 0l5-5v-25l-5-5h-25l-5 5v25l5 5h25zm-5-10h-15v-15h15v15zm26.438 10V26h2.175l12.5 12.5h14.15l-12.5-12.5h3.675l5-5V8.5l-5-5h-32.5l5 10h22.5V16h-25v22.5h10zm31.439 2.5l10-2.5V23.825L362.183 38.5h14.15l-17.5-17.5 17.5-17.5h-14.15l-14.675 14.675V3.5h-10V41z" id="c"/></defs><g fill-rule="nonzero" fill="none"><path d="M0 42l10.413-2.66v-26.6h23.43L39.05 2.1H5.207L0 7.42V42zm36.94-15.75v-10.5H13.72v10.5h23.22zM54.25 39.9V26.775h2.277L69.616 39.9h14.816L71.344 26.775h3.848l5.235-5.25V8.4l-5.235-5.25H41.16l5.235 10.5h23.56v2.625H43.78V39.9h10.47zm70.288 2.1V7.42L119.26 2.1H92.876l-5.277 5.32v31.92h10.554v-26.6h15.83v2.66h-13.192v10.64h13.193v10.64L124.538 42zm43.271 0V7.42l-5.277-5.32h-26.385l-5.277 5.32v31.92h10.554v-26.6h2.639v26.6h10.554v-26.6h2.638v23.94L167.81 42zm43.835-2.1V29.4h-26.033V13.65h23.43l5.206-10.5h-33.843l-5.207 5.25v26.25l5.207 5.25h31.24zm-.563-13.65v-10.5h-23.219v10.5h23.22zm39.05 13.65l5.277-5.32V2.66h-10.554v26.6h-2.638V2.66H231.66v26.6h-2.638V5.32L218.469 0v34.58l5.277 5.32h26.385zm43.272 0l5.277-5.25V8.4l-5.277-5.25h-26.385L261.74 8.4v26.25l5.277 5.25h26.385zm-5.277-10.5h-15.831V13.65h15.83V29.4zm27.864 10.5V26.775h2.278L331.356 39.9h14.817l-13.089-13.125h3.848l5.236-5.25V8.4l-5.236-5.25h-34.03l5.235 10.5h23.56v2.625h-26.178V39.9h10.471zm33.35 2.1l10.6-2.66V23.726L375.5 39.34H390.5l-18.553-18.62L390.5 2.1h-15.001L359.94 17.714V2.1h-10.602V42z" fill="#1800D0" filter="url(#a)" transform="translate(18 18)"/><g transform="translate(18 18)"><use fill="url(#b)" xlink:href="#c"/><use fill="url(#d)" xlink:href="#c"/></g></g></svg>